<svg width="15.000000" height="17.996948" viewBox="0 0 15 17.9969" fill="none" xmlns="http://www.w3.org/2000/svg" xmlns:xlink="http://www.w3.org/1999/xlink">
	<desc>
			Created with Pixso.
	</desc>
	<defs/>
	<path d="M2.12 8.91C2.12 6.13 2.12 3.35 2.12 0.39C4.92 0.39 7.46 0.28 9.99 0.43C12.65 0.58 14.65 3.02 14.58 5.69C14.5 8.28 12.46 10.54 9.8 10.65C7.91 10.77 6.05 10.69 4.08 10.69L2.12 8.91ZM4.08 2.09C4.08 4.47 4.08 6.69 4.08 8.99C4.58 9.02 6.05 8.99 6.43 8.99C7.49 8.99 8.97 9.02 9.8 8.91C11.58 8.73 12.87 7.21 12.83 5.5C12.8 3.72 11.43 2.21 9.58 2.09C7.8 2.02 5.98 2.09 4.08 2.09Z" fill="#1C62CD" fill-opacity="1.000000" fill-rule="nonzero"/>
	<path d="M7.68 11.1C7.12 11.1 6.51 11.1 5.9 11.1C5.3 11.1 4.69 11.1 4.09 11.1L4.09 10.36C4.69 10.36 5.3 10.36 5.9 10.36C7.23 10.36 8.52 10.4 9.81 10.32C12.23 10.17 14.16 8.17 14.2 5.69C14.27 3.13 12.34 0.95 9.96 0.8C8.21 0.69 6.47 0.72 4.65 0.76C3.93 0.76 3.21 0.8 2.49 0.8L2.49 8.95L1.74 8.95L1.74 0.06L2.12 0.06C2.99 0.06 3.82 0.06 4.65 0.02C6.51 -0.02 8.25 -0.02 10.03 0.06C12.84 0.2 15.03 2.76 14.99 5.69C14.92 8.54 12.68 10.88 9.88 11.03C9.12 11.1 8.4 11.1 7.68 11.1ZM7.68 9.36C7.31 9.36 6.89 9.36 6.43 9.36C6.28 9.36 5.98 9.36 5.64 9.36C5.03 9.36 4.35 9.36 4.05 9.36L3.71 9.32L3.71 1.69L4.09 1.69C4.69 1.69 5.26 1.69 5.83 1.69C7.12 1.69 8.37 1.65 9.62 1.72C11.62 1.84 13.21 3.5 13.25 5.5C13.29 7.43 11.77 9.1 9.88 9.28C9.39 9.36 8.63 9.36 7.68 9.36ZM6.28 8.62C6.36 8.62 6.4 8.62 6.43 8.62C8.02 8.65 9.12 8.62 9.77 8.58C11.28 8.43 12.49 7.1 12.46 5.54C12.46 3.91 11.17 2.58 9.54 2.5C8.33 2.43 7.12 2.47 5.83 2.47C5.37 2.47 4.92 2.47 4.46 2.47L4.46 8.62C4.81 8.62 5.26 8.62 5.64 8.62C5.9 8.62 6.13 8.62 6.28 8.62Z" fill="#1C62CD" fill-opacity="1.000000" fill-rule="nonzero"/>
	<path d="M0.41 8.99L4.77 8.99L4.77 10.73L0.41 10.73L0.41 8.99Z" fill="#1C62CD" fill-opacity="1.000000" fill-rule="evenodd"/>
	<path d="M5.11 11.06L0 11.06L0 8.58L5.11 8.58L5.11 11.06ZM0.79 10.32L4.39 10.32L4.39 9.32L0.79 9.32L0.79 10.32Z" fill="#1C62CD" fill-opacity="1.000000" fill-rule="nonzero"/>
	<path d="M0.41 12.43L8.29 12.43L8.29 14.17L0.41 14.17L0.41 12.43Z" fill="#1C62CD" fill-opacity="1.000000" fill-rule="evenodd"/>
	<path d="M8.67 14.55L0.03 14.55L0.03 12.06L8.67 12.06L8.67 14.55ZM0.79 13.8L7.91 13.8L7.91 12.8L0.79 12.8L0.79 13.8Z" fill="#1C62CD" fill-opacity="1.000000" fill-rule="nonzero"/>
	<path d="M2.12 7.91L4.08 7.91L4.08 17.62L2.12 17.62L2.12 7.91Z" fill="#1C62CD" fill-opacity="1.000000" fill-rule="evenodd"/>
	<path d="M4.46 17.99L1.74 17.99L1.74 7.54L4.46 7.54L4.46 17.99ZM2.49 17.25L3.71 17.25L3.71 8.28L2.49 8.28L2.49 17.25Z" fill="#1C62CD" fill-opacity="1.000000" fill-rule="nonzero"/>
</svg>
