<svg width="30.000000" height="22.438477" viewBox="0 0 30 22.4385" fill="none" xmlns="http://www.w3.org/2000/svg" xmlns:xlink="http://www.w3.org/1999/xlink">
	<desc>
			Created with Pixso.
	</desc>
	<defs/>
	<path id="Vector" d="M30 0L29.07 2.49L26.65 2.49L22.31 17.45L5.76 17.45L0 3.73L21.01 3.73L20.31 6.23L3.76 6.23L7.43 14.95L20.46 14.95L24.75 0L30 0ZM10.62 18.69C9.59 18.69 8.75 19.53 8.75 20.56C8.75 21.6 9.59 22.43 10.62 22.43C11.65 22.43 12.5 21.6 12.5 20.56C12.5 19.53 11.65 18.69 10.62 18.69ZM19.25 9.97L16.87 18.69C15.84 18.69 15 19.53 15 20.56C15 21.6 15.84 22.43 16.87 22.43C17.9 22.43 18.75 21.6 18.75 20.56C18.75 19.53 17.9 18.69 16.87 18.69L19.25 9.97Z" fill="#2F3035" fill-opacity="1.000000" fill-rule="nonzero"/>
</svg>
