<svg width="24.000000" height="21.939819" viewBox="0 0 24 21.9398" fill="none" xmlns="http://www.w3.org/2000/svg" xmlns:xlink="http://www.w3.org/1999/xlink">
	<desc>
			Created with Pixso.
	</desc>
	<defs/>
	<path id="Vector" d="M12 8.2C12.23 7.08 13.54 1.99 17.38 1.99C19.6 1.99 22 3.54 22 6.98C22 10.88 18.37 15.43 12 19.57C5.62 15.43 2 10.88 2 6.98C2 3.5 4.36 1.99 6.57 1.99C10.5 1.99 11.72 7.1 12 8.2ZM0 6.98C0 11.04 3.06 16.43 12 21.93C20.93 16.43 24 11.04 24 6.98C24 -0.96 14.35 -2.02 12 3.25C9.66 -2 0 -1.01 0 6.98Z" fill="#2F3035" fill-opacity="1.000000" fill-rule="nonzero"/>
</svg>
